<svg width="21" height="21" viewBox="0 0 21 21" fill="none" xmlns="http://www.w3.org/2000/svg">
<path d="M20.1393 10.9036C20.1393 16.4085 15.6956 20.8522 10.1908 20.8522C4.68588 20.8522 0.242188 16.4085 0.242188 10.9036C0.242188 5.39877 4.68588 0.955078 10.1908 0.955078C15.6956 0.955078 20.1393 5.39877 20.1393 10.9036Z" fill="#FFDD67"/>
<path d="M20.0744 4.66972C19.9086 3.77435 19.4111 3.04479 18.5821 2.81266C17.6867 2.58052 16.8908 2.91214 16.1281 3.70803C15.697 2.5142 15.0338 1.61883 13.9726 1.15456C12.9114 0.690299 11.8502 1.02192 11.187 1.85096C10.4906 2.71317 10.2253 4.07281 10.9549 5.83039C11.6513 7.48848 14.7353 10.8047 14.8348 10.9041C14.9674 10.8378 18.4163 8.6823 19.2453 7.62113C20.0744 6.59311 20.2402 5.56509 20.0744 4.66972ZM9.19727 1.85096C8.53403 1.02192 7.47285 0.690299 6.41167 1.15456C5.35049 1.61883 4.68725 2.5142 4.25615 3.70803C3.46026 2.9453 2.66437 2.58052 1.769 2.84582C0.973116 3.07795 0.442526 3.80751 0.276716 4.70288C0.110907 5.56509 0.309878 6.62627 1.10576 7.65429C1.96797 8.6823 5.41681 10.8378 5.54946 10.9041C5.64895 10.8047 8.73301 7.48848 9.42941 5.83039C10.159 4.07281 9.89367 2.74633 9.19727 1.85096Z" fill="#F46767"/>
<path d="M15.8297 12.9263C15.8297 12.661 15.6639 12.3294 15.2328 12.2299C14.0722 11.9978 12.3809 11.7988 10.1922 11.7988C8.00353 11.7988 6.31227 12.031 5.1516 12.2299C4.68733 12.3294 4.55469 12.661 4.55469 12.9263C4.55469 15.3471 6.41176 17.768 10.1922 17.768C13.9727 17.7348 15.8297 15.314 15.8297 12.9263Z" fill="#664E27"/>
<path d="M14.4028 12.9937C13.6733 12.8611 12.1478 12.6621 10.1913 12.6621C8.23472 12.6621 6.70927 12.8611 5.97971 12.9937C5.5486 13.0601 5.51544 13.2259 5.5486 13.4912C5.58176 13.6238 5.58176 13.8228 5.64809 14.0217C5.68125 14.2207 5.74757 14.3202 6.07919 14.287C6.70927 14.2207 13.7064 14.2207 14.3365 14.287C14.6681 14.3202 14.7013 14.2207 14.7676 14.0217C14.8008 13.8228 14.8339 13.657 14.8671 13.4912C14.8671 13.2259 14.8339 13.0601 14.4028 12.9937Z" fill="white"/>
</svg>
