<svg width="21" height="21" viewBox="0 0 21 21" fill="none" xmlns="http://www.w3.org/2000/svg">
<path d="M0.976562 10.9024C0.976562 16.413 5.42493 20.8614 10.9356 20.8614C16.4462 20.8614 20.8946 16.413 20.8946 10.9024C20.8946 5.39172 16.4462 0.943359 10.9356 0.943359C5.42493 0.943359 0.976562 5.39172 0.976562 10.9024Z" fill="#FFDD67"/>
<path d="M16.4141 5.69049C16.4141 8.97696 20.8956 8.97696 20.8956 5.69049C20.8956 3.30032 18.6714 0.943359 18.6714 0.943359C18.6714 0.943359 16.4141 3.30032 16.4141 5.69049Z" fill="#65B1EF"/>
<path d="M14.7555 13.89C15.6722 13.89 16.4154 13.1468 16.4154 12.2301C16.4154 11.3134 15.6722 10.5703 14.7555 10.5703C13.8388 10.5703 13.0957 11.3134 13.0957 12.2301C13.0957 13.1468 13.8388 13.89 14.7555 13.89Z" fill="#664E27"/>
<path d="M7.12077 13.89C8.03748 13.89 8.78061 13.1468 8.78061 12.2301C8.78061 11.3134 8.03748 10.5703 7.12077 10.5703C6.20407 10.5703 5.46094 11.3134 5.46094 12.2301C5.46094 13.1468 6.20407 13.89 7.12077 13.89Z" fill="#664E27"/>
<path d="M8.80976 7.55038C7.74746 8.44669 6.32 8.84505 4.92574 8.57948C4.72656 8.54628 4.56057 9.24341 4.79295 9.3098C6.38639 9.60858 8.04623 9.14382 9.27451 8.11472C9.4405 7.94874 8.94254 7.41759 8.80976 7.55038ZM16.943 8.54628C15.5487 8.77866 14.1212 8.41349 13.0589 7.51718C12.9262 7.3844 12.395 7.91554 12.5942 8.08153C13.8225 9.14382 15.4823 9.57538 17.0757 9.27661C17.3081 9.21021 17.1421 8.51308 16.943 8.54628Z" fill="#917524"/>
<path d="M13.5912 17.5408H8.27971C7.78176 17.5408 7.78176 16.2129 8.27971 16.2129H13.5912C14.0891 16.2129 14.0891 17.5408 13.5912 17.5408Z" fill="#664E27"/>
</svg>
