<svg width="21" height="24" viewBox="0 0 21 24" fill="none" xmlns="http://www.w3.org/2000/svg">
<path d="M20.2905 9.9129C20.2905 9.9129 19.1379 10.9887 17.1785 12.2565C16.6406 9.1445 15.1422 5.30249 12.2223 0.615234C12.2223 0.615234 11.2618 5.64827 8.07291 10.3739C6.68978 8.22242 6.07506 6.53193 6.07506 6.53193C-3.91419 16.5596 4.38457 23.6673 9.60971 23.6673C16.2948 23.6673 22.1731 20.44 20.2905 9.9129Z" fill="#FF9D33"/>
<path d="M16.333 18.8267C16.9093 17.5589 17.3319 15.9068 17.4087 13.8321C17.4087 13.8321 16.6019 14.5237 15.2188 15.4073C14.8346 13.3327 13.7972 10.7969 11.761 7.64648C11.761 7.64648 11.1078 10.989 8.87944 14.1779C7.91894 12.7564 7.49632 11.6038 7.49632 11.6038C5.84425 14.2163 5.1911 16.291 5.15268 17.9431C4.2306 17.5973 3.6543 17.3284 3.6543 17.3284C5.22952 22.0156 8.49524 23.053 9.95521 23.053C12.5678 23.053 15.2188 22.2845 17.8313 18.5578C17.8313 18.5194 17.255 18.6731 16.333 18.8267Z" fill="#FFCE31"/>
<path d="M6.80514 16.7135C6.80514 16.7135 7.8809 18.1735 8.68773 17.8277C8.68773 17.8277 10.2245 15.4072 12.4529 14.0625C12.4529 14.0625 11.9919 17.7508 12.5297 18.404C13.2213 19.2876 15.1039 17.4435 15.1039 17.4435C15.1039 19.6334 12.7218 22.3612 10.5703 22.3612C8.49563 22.3612 5.49885 19.9792 6.80514 16.7135Z" fill="#FFDF85"/>
<path d="M17.5243 6.80131C18.3311 5.6487 18.869 4.41926 18.869 4.41926C20.2137 6.64763 19.4069 7.99233 18.8306 8.41495C18.0237 9.02967 16.6022 8.14601 17.5243 6.80131ZM2.84776 6.41711C2.04093 5.0724 1.96409 3.38192 1.96409 3.38192C0.0430816 6.26343 0.773065 7.87707 1.42621 8.33811C2.27145 8.99125 3.73142 7.99233 2.84776 6.41711ZM7.3045 3.42034C7.41976 2.49825 7.03555 1.57617 7.03555 1.57617C8.8413 2.7672 8.8413 3.76612 8.61078 4.18874C8.265 4.6882 7.18924 4.45768 7.3045 3.42034Z" fill="#FF9D33"/>
</svg>
