<svg width="21" height="21" viewBox="0 0 21 21" fill="none" xmlns="http://www.w3.org/2000/svg">
<path d="M10.4258 20.8614C15.926 20.8614 20.3848 16.4026 20.3848 10.9024C20.3848 5.40217 15.926 0.943359 10.4258 0.943359C4.9256 0.943359 0.466797 5.40217 0.466797 10.9024C0.466797 16.4026 4.9256 20.8614 10.4258 20.8614Z" fill="#FFDD67"/>
<path d="M6.60906 10.7689C7.52576 10.7689 8.26889 10.0258 8.26889 9.10906C8.26889 8.19235 7.52576 7.44922 6.60906 7.44922C5.69235 7.44922 4.94922 8.19235 4.94922 9.10906C4.94922 10.0258 5.69235 10.7689 6.60906 10.7689Z" fill="#664E27"/>
<path d="M14.2458 10.7689C15.1625 10.7689 15.9056 10.0258 15.9056 9.10906C15.9056 8.19235 15.1625 7.44922 14.2458 7.44922C13.3291 7.44922 12.5859 8.19235 12.5859 9.10906C12.5859 10.0258 13.3291 10.7689 14.2458 10.7689Z" fill="#664E27"/>
<path d="M14.6079 13.657C11.919 15.5492 8.9313 15.516 6.24236 13.657C5.91039 13.4246 5.64482 13.823 5.844 14.1882C6.67392 15.516 8.30056 16.7443 10.4252 16.7443C12.5497 16.7443 14.1764 15.5492 15.0063 14.1882C15.2055 13.823 14.9399 13.4246 14.6079 13.657Z" fill="#664E27"/>
</svg>
