<svg width="16" height="23" viewBox="0 0 16 23" fill="none" xmlns="http://www.w3.org/2000/svg">
<path d="M7.72772 13.0414C7.72772 13.0414 6.11873 12.7123 7.43517 15.4549C8.38594 17.4296 8.27624 19.7333 7.43517 20.9401C6.04559 22.8782 3.37614 22.2565 3.66868 21.1229C4.61944 17.2833 2.46194 16.1131 1.3649 13.6997C0.231295 11.2496 0.340999 7.73911 0.85295 4.63086C1.18206 2.69277 2.02312 0.279297 5.05826 0.279297H9.26357L7.72772 13.0414Z" fill="#FFDD67"/>
<path d="M5.53455 0.827813C2.49941 0.827813 1.84119 3.24128 1.51208 5.17937C1.00013 8.28763 0.92699 10.7742 1.91432 13.2974C3.01136 16.04 4.14497 16.1131 4.14497 21.5251C4.14497 21.7811 4.29124 21.964 4.43751 22.1102C3.92556 21.9274 3.63302 21.6349 3.63302 21.196C3.63302 17.137 2.49941 16.1497 1.40237 13.6997C0.232199 11.2496 0.341903 7.73911 0.853854 4.63086C1.18297 2.69277 2.02403 0.279297 5.05916 0.279297H9.26447V0.827813H5.53455Z" fill="#EBA352"/>
<path d="M12.9194 9.85938H7.72677C5.89837 9.85938 5.89837 13.0408 7.72677 13.0408H12.9194C14.7478 13.0408 14.7478 9.85938 12.9194 9.85938Z" fill="#FFDD67"/>
<path d="M13.3228 10.3727H8.13014C6.88684 10.3727 6.52116 11.8354 6.9234 12.7496C5.93607 11.9817 6.22861 9.82422 7.69133 9.82422H12.9205C13.5056 9.82422 13.9079 10.1533 14.1273 10.6287C13.9079 10.4824 13.6519 10.3727 13.3228 10.3727Z" fill="#EBA352"/>
<path d="M13.4676 6.64258H7.25102C5.05695 6.64258 5.05695 9.82397 7.25102 9.82397H13.5041C15.6616 9.82397 15.6616 6.64258 13.4676 6.64258Z" fill="#FFDD67"/>
<path d="M13.9797 7.19109H7.7266C6.26388 7.19109 5.7885 8.6538 6.30045 9.568C5.13028 8.80007 5.45939 6.64258 7.25122 6.64258H13.5043C14.1991 6.64258 14.6745 6.97169 14.9305 7.44707C14.6745 7.3008 14.3454 7.19109 13.9797 7.19109Z" fill="#EBA352"/>
<path d="M12.8851 3.46094H7.61934C5.79095 3.46094 5.79095 6.64233 7.61934 6.64233H12.8851C14.7501 6.64233 14.7501 3.46094 12.8851 3.46094Z" fill="#FFDD67"/>
<path d="M13.3234 4.00999H8.02103C6.77772 4.00999 6.37548 5.4727 6.81429 6.42347C5.82696 5.65554 6.08293 3.49805 7.61878 3.49805H12.8846C13.4697 3.49805 13.8719 3.82716 14.0913 4.30254C13.9085 4.08313 13.6159 4.00999 13.3234 4.00999Z" fill="#EBA352"/>
<path d="M12.3349 0.279297H8.93413C6.95946 0.279297 6.95946 3.46069 8.93413 3.46069H12.3349C14.3096 3.46069 14.3096 0.279297 12.3349 0.279297Z" fill="#FFDD67"/>
<path d="M12.775 0.791245H9.37423C8.05778 0.791245 7.61897 2.25395 8.09435 3.20472C7.03388 2.43679 7.32643 0.279297 8.93541 0.279297H12.3362C12.9945 0.279297 13.3967 0.608406 13.6161 1.08379C13.3967 0.900948 13.1042 0.791245 12.775 0.791245Z" fill="#EBA352"/>
</svg>
