<svg width="30" height="31" viewBox="0 0 30 31" fill="none" xmlns="http://www.w3.org/2000/svg">
<g clip-path="url(#clip0_4105_1207)">
<path d="M15 0.171875C6.75586 0.171875 0 6.92773 0 15.1719C0 23.416 6.75586 30.1719 15 30.1719C23.2441 30.1719 30 23.416 30 15.1719C30 6.92773 23.2441 0.171875 15 0.171875Z" fill="#F9B334"/>
<path d="M30 15.1719C30 23.416 23.2441 30.1719 15 30.1719V0.171875C23.2441 0.171875 30 6.92773 30 15.1719Z" fill="#DD8738"/>
<path d="M24.0879 12.0781L15.0001 20.3398L13.1895 21.9922L6.61523 15.418L9.09381 12.9394L13.295 17.1406L15.0001 15.5938L21.7325 9.47656L24.0879 12.0781Z" fill="#E7E7E7"/>
<path d="M24.0878 12.0781L15 20.3398V15.5938L21.7325 9.47656L24.0878 12.0781Z" fill="#D3D3D8"/>
</g>
<defs>
<clipPath id="clip0_4105_1207">
<rect width="30" height="30" fill="white" transform="translate(0 0.171875)"/>
</clipPath>
</defs>
</svg>
