<svg width="33" height="17" viewBox="0 0 33 17" fill="none" xmlns="http://www.w3.org/2000/svg">
<g clip-path="url(#clip0_993_5147)">
<path d="M9.77425 7.6219C9.78914 7.46174 9.82137 7.3046 9.87067 7.15185C10.0205 6.94341 10.1425 6.7137 10.2312 6.46813C10.6508 5.92788 11.3025 5.60742 11.9883 5.60742H13.793C14.0935 5.60742 14.3847 5.66614 14.6585 5.7819C14.9045 5.88612 15.1881 5.77081 15.292 5.52499C15.396 5.27916 15.281 4.9955 15.0351 4.89154C14.9708 4.86434 14.9059 4.8394 14.8404 4.81658C15.3667 4.30663 15.6943 3.59275 15.6943 2.80371C15.6943 1.25774 14.4366 0 12.8906 0C11.3447 0 10.0869 1.25774 10.0869 2.80371C10.0869 3.59346 10.4152 4.30792 10.9423 4.818C10.7409 4.88812 10.5469 4.97817 10.3636 5.08658C10.1553 3.74486 8.99224 2.7147 7.59316 2.7147C6.04719 2.7147 4.78945 3.97244 4.78945 5.51841C4.78945 6.30758 5.11719 7.02159 5.64371 7.53154C5.51706 7.5755 5.39312 7.62751 5.27265 7.68732C4.91384 7.5202 4.51404 7.4268 4.09284 7.4268C2.54687 7.4268 1.28913 8.68454 1.28913 10.2305C1.28913 11.0198 1.617 11.7339 2.14358 12.2439C0.896994 12.6782 0 13.8652 0 15.2579V17.4493C0 18.5688 0.910787 19.4796 2.03027 19.4796H3.33113C3.5981 19.4796 3.81453 19.2632 3.81453 18.9962C3.81453 18.7292 3.5981 18.5128 3.33113 18.5128H2.03027C1.44388 18.5128 0.966797 18.0357 0.966797 17.4493V15.2579C0.966797 14.0318 1.96434 13.0343 3.19043 13.0343H4.99512C6.22121 13.0343 7.21875 14.0318 7.21875 15.2579V17.4493C7.21875 18.0357 6.74167 18.5128 6.15527 18.5128H5.41761C5.15064 18.5128 4.93421 18.7292 4.93421 18.9962C4.93421 19.2632 5.15064 19.4796 5.41761 19.4796H6.15527C7.27476 19.4796 8.18555 18.5688 8.18555 17.4493V15.2579C8.18555 15.0912 8.17266 14.9274 8.14791 14.7676H9.65572C10.7752 14.7676 11.686 13.8568 11.686 12.7373V12.0527H14.9531C16.0726 12.0527 16.9834 11.1419 16.9834 10.0225V7.83105C16.9834 7.4067 16.9014 6.99432 16.7394 6.60535C16.6368 6.35882 16.3539 6.24209 16.1074 6.34483C15.8609 6.44744 15.7442 6.73039 15.8468 6.97686C15.9595 7.24743 16.0166 7.53483 16.0166 7.83105V10.0225C16.0166 10.6089 15.5395 11.0859 14.9531 11.0859H11.686V10.5458C11.668 10.2261 11.5828 9.4835 11.0647 8.74049C10.6148 8.09518 10.0589 7.76583 9.77425 7.6219ZM12.8906 0.966797C13.9035 0.966797 14.7275 1.79083 14.7275 2.80371C14.7275 3.81659 13.9035 4.64062 12.8906 4.64062C11.8777 4.64062 11.0537 3.81659 11.0537 2.80371C11.0537 1.79083 11.8777 0.966797 12.8906 0.966797ZM7.59309 3.6815C8.60597 3.6815 9.43001 4.50553 9.43001 5.51841C9.43001 5.69302 9.40552 5.86208 9.35975 6.02224C9.21693 6.22901 9.09949 6.45202 9.00997 6.68624C8.67275 7.09461 8.1628 7.35533 7.59309 7.35533C6.58021 7.35533 5.75618 6.53129 5.75618 5.51841C5.75618 4.50553 6.58021 3.6815 7.59309 3.6815ZM4.09277 8.39367C5.10565 8.39367 5.92969 9.2177 5.92969 10.2306C5.92969 11.2435 5.10565 12.0675 4.09277 12.0675C3.07989 12.0675 2.25586 11.2434 2.25586 10.2306C2.25586 9.21776 3.07989 8.39367 4.09277 8.39367ZM10.7192 12.7372C10.7192 13.3236 10.2421 13.8007 9.65572 13.8007H7.83286C7.46006 13.0777 6.81895 12.5145 6.04196 12.2439C6.56861 11.7339 6.89642 11.0198 6.89642 10.2305C6.89642 9.52095 6.63145 8.8721 6.19523 8.37775C6.35682 8.34094 6.52298 8.32219 6.69081 8.32219H8.4955C8.71535 8.32219 8.93249 8.35422 9.14094 8.41745C10.0849 8.70362 10.7191 9.55898 10.7191 10.5458L10.7192 12.7372Z" fill="#A63434"/>
<path d="M31.3086 18.841C31.152 18.6248 30.8497 18.5765 30.6335 18.7332C30.4173 18.8899 30.369 19.192 30.5257 19.4083C31.5131 20.7712 32.0352 22.3843 32.0352 24.0732C32.0352 28.4624 28.4643 32.0332 24.0752 32.0332C19.6861 32.0332 16.1152 28.4624 16.1152 24.0732C16.1152 19.684 19.6861 16.1133 24.0752 16.1133C25.9507 16.1133 27.772 16.7781 29.2034 17.9851C29.4075 18.1573 29.7125 18.1312 29.8845 17.9273C30.0566 17.7231 30.0307 17.4182 29.8267 17.2461C28.2211 15.8921 26.1785 15.1465 24.0752 15.1465C19.153 15.1465 15.1484 19.151 15.1484 24.0732C15.1484 28.9955 19.153 33 24.0752 33C28.9974 33 33.002 28.9955 33.002 24.0732C33.002 22.1792 32.4164 20.37 31.3086 18.841Z" fill="#A63434"/>
<path d="M21.3271 5.62702C24.0227 5.62702 26.2587 7.63222 26.6219 10.2294L26.251 9.95537C26.0362 9.79662 25.7336 9.84212 25.5749 10.0569C25.4163 10.2717 25.4618 10.5743 25.6766 10.7329L26.8697 11.6143C26.9534 11.6761 27.0542 11.7089 27.1569 11.7089C27.1821 11.7089 27.2073 11.7069 27.2324 11.7029C27.3603 11.6828 27.4747 11.6121 27.55 11.5068L28.4639 10.2297C28.6193 10.0127 28.5692 9.7107 28.3522 9.55531C28.135 9.39997 27.8331 9.44999 27.6777 9.66713L27.5416 9.85733C27.0131 6.90667 24.4275 4.66016 21.3271 4.66016C21.0602 4.66016 20.8438 4.87653 20.8438 5.14355C20.8438 5.41058 21.0601 5.62702 21.3271 5.62702Z" fill="#A63434"/>
</g>
<defs>
<clipPath id="clip0_993_5147">
<rect width="33" height="33" fill="white"/>
</clipPath>
</defs>
</svg>
