<svg width="61" height="50" viewBox="0 0 61 50" fill="none" xmlns="http://www.w3.org/2000/svg">
<path d="M0.5 8C0.5 3.85787 3.85786 0.5 8 0.5H60.5V49.5H8C3.85787 49.5 0.5 46.1421 0.5 42V8Z" fill="#7BC1EE"/>
<path d="M0.5 8C0.5 3.85787 3.85786 0.5 8 0.5H60.5V49.5H8C3.85787 49.5 0.5 46.1421 0.5 42V8Z" stroke="#D9D9D9"/>
<g clip-path="url(#clip0_993_5164)">
<path d="M44.6427 20.6846H43.3079V16.7471H45.2779C46.2275 16.7471 47.0001 15.9745 47.0001 15.0249C47.0001 14.0754 46.2275 13.3028 45.2779 13.3028H41.1861C40.9267 13.3028 40.7164 13.5131 40.7164 13.7725C40.7164 14.0319 40.9267 14.2422 41.1861 14.2422H45.2779C45.7096 14.2422 46.0607 14.5933 46.0607 15.0249C46.0607 15.4566 45.7096 15.8077 45.2779 15.8077H18.4443V14.2422H39.3074C39.5669 14.2422 39.7771 14.0319 39.7771 13.7725C39.7771 13.5131 39.5669 13.3028 39.3074 13.3028H18.4443V10.7221C18.4443 9.77256 17.6718 9 16.7221 9C15.7725 9 15 9.77256 15 10.7221V39.9041C15 40.5084 15.4916 41 16.0959 41H17.3483C17.9526 41 18.4442 40.5084 18.4442 39.9041V16.7471H24.5403V20.6846H23.2055C21.9106 20.6846 20.8572 21.7381 20.8572 23.0329V31.6885C20.8572 32.9834 21.9106 34.0368 23.2055 34.0368H24.7587C25.0182 34.0368 25.2284 33.8265 25.2284 33.5671C25.2284 33.3078 25.0182 33.0974 24.7587 33.0974H23.2055C22.4286 33.0974 21.7965 32.4654 21.7965 31.6884V23.0329C21.7965 22.256 22.4286 21.6239 23.2055 21.6239H34.5956C34.8551 21.6239 35.0653 21.4136 35.0653 21.1543C35.0653 20.8949 34.8551 20.6846 34.5956 20.6846H27.5076V16.747H40.3407V20.6846H36.4743C36.2149 20.6846 36.0046 20.8949 36.0046 21.1543C36.0046 21.4136 36.2149 21.6239 36.4743 21.6239H44.6427C45.4196 21.6239 46.0518 22.256 46.0518 23.0329V31.6885C46.0518 32.4654 45.4197 33.0975 44.6427 33.0975H26.6375C26.3781 33.0975 26.1678 33.3078 26.1678 33.5672C26.1678 33.8266 26.3781 34.0369 26.6375 34.0369H44.6427C45.9376 34.0369 46.9911 32.9834 46.9911 31.6886V23.0329C46.9911 21.7381 45.9376 20.6846 44.6427 20.6846ZM17.5049 39.9041C17.5049 39.9904 17.4347 40.0607 17.3483 40.0607H16.0959C16.0095 40.0607 15.9393 39.9904 15.9393 39.9041V10.7221C15.9393 10.2905 16.2904 9.93937 16.7221 9.93937C17.1537 9.93937 17.5048 10.2905 17.5048 10.7221L17.5049 39.9041ZM26.5682 20.6846H25.4797V16.7471H26.5682V20.6846ZM41.28 16.7471H42.3686V20.6846H41.28V16.7471Z" fill="white"/>
<path d="M43.9234 29.1162C43.5743 29.1182 43.1992 29.1196 42.918 29.1198V25.3711C42.918 25.1122 42.7082 24.9023 42.4492 24.9023C42.1903 24.9023 41.9805 25.1122 41.9805 25.3711V29.585C41.9805 29.8133 42.145 30.0084 42.37 30.047C42.404 30.0528 42.4316 30.0575 42.8915 30.0575C43.1165 30.0575 43.4451 30.0563 43.9287 30.0537C44.1875 30.0523 44.3962 29.8412 44.3948 29.5823C44.3933 29.3234 44.1831 29.1156 43.9234 29.1162Z" fill="white"/>
<path d="M27.0943 24.8945C26.8353 24.8945 26.6255 25.1044 26.6255 25.3633V26.9309H24.6445V25.3633C24.6445 25.1044 24.4347 24.8945 24.1758 24.8945C23.9168 24.8945 23.707 25.1044 23.707 25.3633V29.5807C23.707 29.8395 23.9168 30.0494 24.1758 30.0494C24.4347 30.0494 24.6445 29.8395 24.6445 29.5807V27.8684H26.6255V29.5807C26.6255 29.8395 26.8353 30.0494 27.0943 30.0494C27.3532 30.0494 27.563 29.8395 27.563 29.5807V25.3633C27.563 25.1044 27.3532 24.8945 27.0943 24.8945Z" fill="white"/>
<path d="M40.4249 25.8594C40.6838 25.8594 40.8937 25.6495 40.8937 25.3906C40.8937 25.1318 40.6838 24.9219 40.4249 24.9219H38.6641C38.4051 24.9219 38.1953 25.1318 38.1953 25.3906V29.5696C38.1953 29.8284 38.4051 30.0383 38.6641 30.0383H40.4249C40.6838 30.0383 40.8937 29.8284 40.8937 29.5696C40.8937 29.3107 40.6838 29.1008 40.4249 29.1008H39.1328V27.9489H40.2951C40.5541 27.9489 40.7639 27.739 40.7639 27.4801C40.7639 27.2213 40.5541 27.0114 40.2951 27.0114H39.1328V25.8594H40.4249Z" fill="white"/>
<path d="M36.751 24.9023H34.4219C34.1629 24.9023 33.9531 25.1122 33.9531 25.3711C33.9531 25.63 34.1629 25.8398 34.4219 25.8398H35.113V29.5885C35.113 29.8474 35.3228 30.0573 35.5818 30.0573C35.8407 30.0573 36.0505 29.8474 36.0505 29.5885V25.8398H36.751C37.0099 25.8398 37.2197 25.63 37.2197 25.3711C37.2197 25.1122 37.0099 24.9023 36.751 24.9023Z" fill="white"/>
<path d="M31.0306 24.9023C29.6094 24.9023 28.4531 26.0586 28.4531 27.4798C28.4531 28.901 29.6094 30.0573 31.0306 30.0573C32.4518 30.0573 33.6081 28.901 33.6081 27.4798C33.6081 26.0586 32.4518 24.9023 31.0306 24.9023ZM31.0306 29.1198C30.1263 29.1198 29.3906 28.3841 29.3906 27.4798C29.3906 26.5755 30.1263 25.8398 31.0306 25.8398C31.9349 25.8398 32.6706 26.5755 32.6706 27.4798C32.6706 28.3841 31.9349 29.1198 31.0306 29.1198Z" fill="white"/>
</g>
<defs>
<clipPath id="clip0_993_5164">
<rect width="32" height="32" fill="white" transform="translate(15 9)"/>
</clipPath>
</defs>
</svg>
