<svg width="61" height="50" viewBox="0 0 61 50" fill="none" xmlns="http://www.w3.org/2000/svg">
<path d="M0.5 8C0.5 3.85787 3.85786 0.5 8 0.5H60.5V49.5H8C3.85787 49.5 0.5 46.1421 0.5 42V8Z" fill="#2E2E83"/>
<path d="M0.5 8C0.5 3.85787 3.85786 0.5 8 0.5H60.5V49.5H8C3.85787 49.5 0.5 46.1421 0.5 42V8Z" stroke="#D9D9D9"/>
<path d="M39.9785 17.4141H21.0215C19.9091 17.4141 19 18.3192 19 19.4355V31.5645C19 32.6812 19.9097 33.5859 21.0215 33.5859H39.9785C41.0909 33.5859 42 32.6808 42 31.5645V19.4355C42 18.3189 41.0904 17.4141 39.9785 17.4141ZM39.6681 18.7617C39.0145 19.4174 31.3376 27.1194 31.0222 27.4359C30.7587 27.7001 30.2414 27.7003 29.9778 27.4359L21.3319 18.7617H39.6681ZM20.3477 31.3167V19.6833L26.1455 25.5L20.3477 31.3167ZM21.3319 32.2383L27.0969 26.4545L29.0234 28.3873C29.8128 29.1793 31.1875 29.179 31.9767 28.3873L33.9031 26.4545L39.6681 32.2383H21.3319ZM40.6523 31.3167L34.8545 25.5L40.6523 19.6833V31.3167Z" fill="white"/>
</svg>
