<svg width="42" height="36" viewBox="0 0 42 36" fill="none" xmlns="http://www.w3.org/2000/svg">
<path d="M31.0992 15.1169C31.0992 26.0747 25.1051 31.1786 15.0327 31.1786C4.96029 31.1786 0 27.4919 0 16.5341C0 5.57626 3.6576 0 13.73 0C23.8024 0 31.0992 4.15905 31.0992 15.1169Z" fill="#F2CF7A" fill-opacity="0.44"/>
<path d="M10.625 32.7299C10.2798 32.7299 10 33.0097 10 33.3549C10 33.7 10.2798 33.9799 10.625 33.9799H41.375C41.7201 33.9799 42 33.7 42 33.3549C42 33.0097 41.7201 32.7299 41.375 32.7299H40.175V29.3534C40.175 29.0082 39.8951 28.7284 39.55 28.7284C39.2049 28.7284 38.925 29.0082 38.925 29.3534V32.7299H21.8262V23.4393C21.8262 23.0942 21.5464 22.8143 21.2012 22.8143H15.6922C15.347 22.8143 15.0672 23.0942 15.0672 23.4393V32.7298H13.075V20.7546C13.2894 20.791 13.5085 20.808 13.7259 20.8064C14.942 20.7981 16.0979 20.1717 16.775 19.1626C17.4571 20.179 18.6249 20.8071 19.85 20.8071C21.0743 20.8071 22.2441 20.1791 22.925 19.1626C23.6093 20.1781 24.7732 20.8071 26 20.8071C27.225 20.8071 28.3933 20.1789 29.075 19.1626C29.7261 20.1331 30.8226 20.7534 31.9911 20.8031C33.2712 20.8574 34.5116 20.2259 35.225 19.1626C36.0305 20.3632 37.4984 20.9966 38.925 20.7546V23.8642C38.925 24.2093 39.2049 24.4892 39.55 24.4892C39.8951 24.4892 40.175 24.2093 40.175 23.8642V20.295C41.2661 19.6508 42 18.4634 42 17.1071V13.8449C42 12.8366 41.2406 11.9486 40.2432 11.7943L36.1964 6.7865C35.8006 6.29656 35.2124 6.01562 34.5825 6.01562H17.4234C16.7883 6.01562 16.1969 6.3005 15.8009 6.79713L11.8199 11.7907C10.8289 11.9339 10.0177 12.806 10 13.8083V15.9278V15.9333V17.1071C10 18.4634 10.7339 19.6508 11.825 20.295V32.7299H10.625ZM16.3172 24.0643H20.5762V32.7298H16.3172V24.0643ZM34.6 17.1069C34.6 18.4578 33.5009 19.5569 32.1501 19.5569C30.7991 19.5569 29.7001 18.4578 29.7001 17.1069V16.5583H34.6V17.1069ZM34.6 15.3083H29.7V13.0199H34.6V15.3083ZM40.75 17.1071C40.75 18.4409 39.6332 19.5569 38.3 19.5569C36.9491 19.5569 35.85 18.4578 35.85 17.1069V16.5583H40.75V17.1071ZM40.75 13.8449V15.3083H35.85V13.0199H39.925C40.3799 13.0199 40.75 13.39 40.75 13.8449ZM34.5824 7.26562C34.8329 7.26562 35.0667 7.37731 35.2241 7.57206L38.6164 11.7699H35.5964L33.1452 7.26562H34.5824ZM31.7221 7.26562L34.1733 11.7699H29.6239L29.0368 7.26562H31.7221ZM24.1672 7.26562H27.7762L28.3633 11.7699H23.6291L24.1672 7.26562ZM23.55 13.0199H28.45V15.3083H23.55V13.0199ZM23.55 16.5583H28.45V17.1069C28.45 18.4578 27.3509 19.5569 26 19.5569C24.6491 19.5569 23.55 18.4578 23.55 17.1069V16.5583ZM22.3 17.1069C22.3 18.4578 21.2009 19.5569 19.85 19.5569C18.4991 19.5569 17.4 18.4578 17.4 17.1069V17.1068C17.4 17.1014 17.3999 17.0959 17.3998 17.0905L17.3856 16.5583H22.3V17.1069ZM22.3 15.3083H17.3688V13.0199H22.3V15.3083ZM20.2762 7.26562H22.9084L22.3702 11.7699H17.8005L20.2762 7.26562ZM16.7783 7.57638C16.9358 7.37894 17.1709 7.26562 17.4234 7.26562H18.8499L16.3741 11.7699H13.4351L16.7783 7.57638ZM11.2873 13.8303C11.2951 13.3834 11.6651 13.0199 12.1121 13.0199H12.1375H16.1188V15.3082H11.2873V13.8303ZM11.25 17.1071V16.5583H16.1351L16.1499 17.1115C16.1474 18.441 15.0326 19.5569 13.7 19.5569C12.3668 19.5569 11.25 18.4409 11.25 17.1071Z" fill="#755403"/>
<path d="M28.3267 23.9141H24.9365C24.5913 23.9141 24.3115 24.1939 24.3115 24.5391V28.6851H24.1602C23.815 28.6851 23.5352 28.965 23.5352 29.3101C23.5352 29.6553 23.815 29.9351 24.1602 29.9351H29.1031C29.4482 29.9351 29.7281 29.6553 29.7281 29.3101C29.7281 28.965 29.4482 28.6851 29.1031 28.6851H28.9517V24.5391C28.9517 24.1939 28.6718 23.9141 28.3267 23.9141ZM27.7017 28.6851H25.5615V25.1641H27.7017V28.6851Z" fill="#755403"/>
<path d="M36.0649 23.9141H32.6748C32.3297 23.9141 32.0498 24.1939 32.0498 24.5391V28.6851H31.8984C31.5533 28.6851 31.2734 28.965 31.2734 29.3101C31.2734 29.6553 31.5533 29.9351 31.8984 29.9351H36.8414C37.1865 29.9351 37.4664 29.6553 37.4664 29.3101C37.4664 28.965 37.1865 28.6851 36.8414 28.6851H36.6899V24.5391C36.6899 24.1939 36.4101 23.9141 36.0649 23.9141ZM35.4399 28.6851H33.2998V25.1641H35.4399V28.6851Z" fill="#755403"/>
<path d="M17.0285 28.6635C17.1395 28.9726 17.4818 29.1471 17.7976 29.051C18.1443 28.9454 18.3331 28.5497 18.1932 28.2141C17.8893 27.4842 16.7628 27.9234 17.0285 28.6635Z" fill="#755403"/>
<path d="M39.1785 26.0267C38.9099 26.226 38.8473 26.612 39.0383 26.8863C39.2297 27.1613 39.6187 27.2326 39.897 27.0477C40.1805 26.8595 40.258 26.4639 40.0695 26.1815C39.8768 25.8867 39.4592 25.8185 39.1785 26.0267Z" fill="#755403"/>
</svg>
