<svg width="112" height="40" viewBox="0 0 112 40" fill="none" xmlns="http://www.w3.org/2000/svg">
<rect x="39" y="38.957" width="38" height="37.9565" rx="18.9783" transform="rotate(-180 39 38.957)" fill="#F7F1F1"/>
<rect x="39" y="38.957" width="38" height="37.9565" rx="18.9783" transform="rotate(-180 39 38.957)" stroke="#C47979" stroke-width="2"/>
<path d="M13.4317 19.8679L22.4835 10.4086C23.0592 9.80652 23.9928 9.80652 24.5683 10.4086C25.1439 11.0101 25.1439 11.9856 24.5683 12.5871L16.559 20.9572L24.5681 29.327C25.1437 29.9287 25.1437 30.9042 24.5681 31.5057C23.9925 32.1075 23.059 32.1075 22.4832 31.5057L13.4315 22.0462C13.1437 21.7453 13 21.3514 13 20.9572C13 20.5629 13.144 20.1687 13.4317 19.8679Z" fill="#C47979"/>
<rect x="1" y="-1" width="38" height="37.9565" rx="18.9783" transform="matrix(1 0 0 -1 72 37.957)" fill="#F7F1F1"/>
<rect x="1" y="-1" width="38" height="37.9565" rx="18.9783" transform="matrix(1 0 0 -1 72 37.957)" stroke="#C47979" stroke-width="2"/>
<path d="M98.5683 19.8679L89.5165 10.4086C88.9408 9.80652 88.0072 9.80652 87.4317 10.4086C86.8561 11.0101 86.8561 11.9856 87.4317 12.5871L95.441 20.9572L87.4319 29.327C86.8563 29.9287 86.8563 30.9042 87.4319 31.5057C88.0075 32.1075 88.941 32.1075 89.5168 31.5057L98.5685 22.0462C98.8563 21.7453 99 21.3514 99 20.9572C99 20.5629 98.856 20.1687 98.5683 19.8679Z" fill="#C47979"/>
</svg>
