<svg width="43" height="36" viewBox="0 0 43 36" fill="none" xmlns="http://www.w3.org/2000/svg">
<path d="M31.1786 15.1169C31.1786 26.0747 25.1691 31.1786 15.071 31.1786C4.97295 31.1786 0 27.4919 0 16.5341C0 5.57626 3.66694 0 13.765 0C23.8631 0 31.1786 4.15905 31.1786 15.1169Z" fill="#F2CF7A" fill-opacity="0.44"/>
<g clip-path="url(#clip0_4105_3075)">
<path d="M41.6369 13.4597H34.9078V12.6577C34.9078 12.3976 34.697 12.1868 34.4369 12.1868C34.1769 12.1868 33.9661 12.3976 33.9661 12.6577L33.9658 35.0605H30.1076V28.3312C30.1076 28.0712 29.8968 27.8604 29.6368 27.8604H27.2349C26.9748 27.8604 26.764 28.0712 26.764 28.3312C26.764 28.5912 26.9748 28.802 27.2349 28.802H29.166V30.2604H22.9068V28.802H25.1826C25.4426 28.802 25.6534 28.5912 25.6534 28.3312C25.6534 28.0712 25.4426 27.8604 25.1826 27.8604H22.436C22.176 27.8604 21.9651 28.0712 21.9651 28.3312V35.0605H18.107L18.1067 9.60094H21.9655V11.5304C21.9655 11.7904 22.1763 12.0012 22.4363 12.0012H29.6365C29.8965 12.0012 30.1073 11.7904 30.1073 11.5304V9.60094H33.9661V10.6054C33.9661 10.8654 34.1769 11.0763 34.4369 11.0763C34.697 11.0763 34.9078 10.8654 34.9078 10.6054V9.60094H35.6366C35.8967 9.60094 36.1075 9.39012 36.1075 9.13009V6.73003C36.1075 6.47 35.8967 6.25918 35.6366 6.25918H30.1073V4.33022C30.1073 4.07019 29.8965 3.85938 29.6365 3.85938H22.4363C22.1763 3.85938 21.9655 4.07019 21.9655 4.33022V6.25918H16.4362C16.1761 6.25918 15.9653 6.47 15.9653 6.73003V9.13009C15.9653 9.39012 16.1761 9.60094 16.4362 9.60094H17.165V13.4594H15.0619C14.8019 13.4594 14.5911 13.6702 14.5911 13.9302C14.5911 14.1902 14.8019 14.4011 15.0619 14.4011H17.165V15.8594H10.9065V14.4011H13.0096C13.2697 14.4011 13.4805 14.1902 13.4805 13.9302C13.4805 13.6702 13.2697 13.4594 13.0096 13.4594H10.4357C10.1757 13.4594 9.96484 13.6702 9.96484 13.9302L9.96516 35.5311C9.96516 35.7912 10.176 36.002 10.436 36.002H41.6369C41.8969 36.002 42.1077 35.7912 42.1077 35.5311V13.9305C42.1077 13.6705 41.8969 13.4597 41.6369 13.4597ZM30.1073 7.20088H35.1658V8.65925H30.1073V7.20088ZM22.9072 4.80107H29.1656V11.0596H22.9072V4.80107ZM17.165 35.0602H10.9069V16.8014H17.165V35.0602ZM16.907 8.65925V7.20088H21.9655V8.65925H16.907ZM22.9068 35.0605V31.2021H25.5656V35.0605H22.9068ZM26.5072 35.0605V31.2021H29.166V35.0605H26.5072ZM41.166 35.0602H34.9078V16.8014H41.166V35.0602ZM41.166 15.8597H34.9078V14.4014H41.166V15.8597Z" fill="#755403"/>
<path d="M27.2361 6.25781C26.9761 6.25781 26.7653 6.46862 26.7653 6.72866V7.45783H25.3069V6.72866C25.3069 6.46862 25.0961 6.25781 24.8361 6.25781C24.576 6.25781 24.3652 6.46862 24.3652 6.72866V9.1287C24.3652 9.38873 24.576 9.59954 24.8361 9.59954C25.0961 9.59954 25.3069 9.38873 25.3069 9.1287V8.39952H26.7653V9.1287C26.7653 9.38873 26.9761 9.59954 27.2361 9.59954C27.4961 9.59954 27.707 9.38873 27.707 9.1287V6.72866C27.707 6.46862 27.4961 6.25781 27.2361 6.25781Z" fill="#755403"/>
<path d="M22.9081 13.9318C22.9081 13.6717 22.6973 13.4609 22.4373 13.4609H20.0372C19.7772 13.4609 19.5664 13.6717 19.5664 13.9318V18.7319C19.5664 18.9919 19.7772 19.2027 20.0372 19.2027H22.4373C22.6973 19.2027 22.9081 18.9919 22.9081 18.7319V13.9318ZM21.9664 18.261H20.5081V16.8027H21.9664V18.261ZM21.9664 15.861H20.5081V14.4026H21.9664V15.861Z" fill="#755403"/>
<path d="M27.707 13.9318C27.707 13.6717 27.4961 13.4609 27.2361 13.4609H24.8361C24.576 13.4609 24.3652 13.6717 24.3652 13.9318V18.7319C24.3652 18.9919 24.576 19.2027 24.8361 19.2027H27.2361C27.4961 19.2027 27.707 18.9919 27.707 18.7319V13.9318ZM26.7653 18.261H25.3069V16.8027H26.7653V18.261ZM26.7653 15.861H25.3069V14.4026H26.7653V15.861Z" fill="#755403"/>
<path d="M32.5077 13.9318C32.5077 13.6717 32.2969 13.4609 32.0369 13.4609H29.6369C29.3768 13.4609 29.166 13.6717 29.166 13.9318V18.7319C29.166 18.9919 29.3768 19.2027 29.6369 19.2027H32.0369C32.2969 19.2027 32.5077 18.9919 32.5077 18.7319V13.9318ZM31.5661 18.261H30.1077V16.8027H31.5661V18.261ZM31.5661 15.861H30.1077V14.4026H31.5661V15.861Z" fill="#755403"/>
<path d="M22.4373 20.6602H20.0372C19.7772 20.6602 19.5664 20.871 19.5664 21.131V25.9311C19.5664 26.1911 19.7772 26.4019 20.0372 26.4019H22.4373C22.6973 26.4019 22.9081 26.1911 22.9081 25.9311V21.131C22.9081 20.871 22.6973 20.6602 22.4373 20.6602ZM21.9664 25.4602H20.5081V24.0019H21.9664V25.4602ZM21.9664 23.0602H20.5081V21.6018H21.9664V23.0602Z" fill="#755403"/>
<path d="M27.2361 20.6602H24.8361C24.576 20.6602 24.3652 20.871 24.3652 21.131V25.9311C24.3652 26.1911 24.576 26.4019 24.8361 26.4019H27.2361C27.4961 26.4019 27.707 26.1911 27.707 25.9311V21.131C27.707 20.871 27.4961 20.6602 27.2361 20.6602ZM26.7653 25.4602H25.3069V24.0019H26.7653V25.4602ZM26.7653 23.0602H25.3069V21.6018H26.7653V23.0602Z" fill="#755403"/>
<path d="M32.0369 20.6602H29.6369C29.3768 20.6602 29.166 20.871 29.166 21.131V25.9311C29.166 26.1911 29.3768 26.4019 29.6369 26.4019H32.0369C32.2969 26.4019 32.5077 26.1911 32.5077 25.9311V21.131C32.5077 20.871 32.2969 20.6602 32.0369 20.6602ZM31.5661 25.4602H30.1077V24.0019H31.5661V25.4602ZM31.5661 23.0602H30.1077V21.6018H31.5661V23.0602Z" fill="#755403"/>
<path d="M36.8361 23.9996H39.2361C39.4961 23.9996 39.707 23.7888 39.707 23.5287V18.7287C39.707 18.4686 39.4961 18.2578 39.2361 18.2578H36.8361C36.576 18.2578 36.3652 18.4686 36.3652 18.7287V23.5287C36.3652 23.7888 36.576 23.9996 36.8361 23.9996ZM37.3069 19.1996H38.7653V20.6579H37.3069V19.1996ZM37.3069 21.5995H38.7653V23.0579H37.3069V21.5995Z" fill="#755403"/>
<path d="M36.8361 31.2028H39.2361C39.4961 31.2028 39.707 30.992 39.707 30.7319V25.9318C39.707 25.6717 39.4961 25.4609 39.2361 25.4609H36.8361C36.576 25.4609 36.3652 25.6717 36.3652 25.9318V30.7319C36.3652 30.992 36.576 31.2028 36.8361 31.2028ZM37.3069 26.4026H38.7653V27.861H37.3069V26.4026ZM37.3069 28.8027H38.7653V30.261H37.3069V28.8027Z" fill="#755403"/>
<path d="M12.8361 23.9996H15.2361C15.4961 23.9996 15.707 23.7888 15.707 23.5287V18.7287C15.707 18.4686 15.4961 18.2578 15.2361 18.2578H12.8361C12.576 18.2578 12.3652 18.4686 12.3652 18.7287V23.5287C12.3652 23.7888 12.576 23.9996 12.8361 23.9996ZM13.3069 19.1996H14.7653V20.6579H13.3069V19.1996ZM13.3069 21.5995H14.7653V23.0579H13.3069V21.5995Z" fill="#755403"/>
<path d="M12.8361 31.2027H15.2361C15.4961 31.2027 15.707 30.9919 15.707 30.7319V25.9318C15.707 25.6717 15.4961 25.4609 15.2361 25.4609H12.8361C12.576 25.4609 12.3652 25.6717 12.3652 25.9318V30.7319C12.3652 30.9919 12.576 31.2027 12.8361 31.2027ZM13.3069 26.4026H14.7653V27.861H13.3069V26.4026ZM13.3069 28.8027H14.7653V30.261H13.3069V28.8027Z" fill="#755403"/>
</g>
<defs>
<clipPath id="clip0_4105_3075">
<rect width="32.1429" height="32.1429" fill="white" transform="translate(9.96484 3.85938)"/>
</clipPath>
</defs>
</svg>
