<svg width="64" height="52" viewBox="0 0 64 52" fill="none" xmlns="http://www.w3.org/2000/svg">
<path d="M39.0047 25.3939C39.0047 39.4521 31.538 46 18.9912 46C6.44447 46 0.265625 41.2703 0.265625 27.2121C0.265625 13.154 4.82175 6 17.3685 6C29.9153 6 39.0047 11.3358 39.0047 25.3939Z" fill="#D71920" fill-opacity="0.21"/>
<path d="M62.4766 16.3516H56.3828C55.5415 16.3516 54.8594 17.0337 54.8594 17.875C54.8594 18.7163 55.5415 19.3984 56.3828 19.3984H58.7987L51.3752 26.8219C50.7066 23.6843 48.6539 21.0532 45.8891 19.6004C47.5235 18.2022 48.5625 16.127 48.5625 13.8125C48.5625 9.61238 45.1454 6.19531 40.9453 6.19531C36.7452 6.19531 33.3281 9.61238 33.3281 13.8125C33.3281 16.127 34.3671 18.2022 36.0016 19.6003C33.451 20.9406 31.5063 23.2832 30.6952 26.1016C30.5045 25.8831 30.3048 25.6709 30.095 25.4666C29.348 24.7387 28.5116 24.1331 27.6114 23.6599C29.2438 22.2617 30.2812 20.1878 30.2812 17.875C30.2812 13.6749 26.8642 10.2578 22.6641 10.2578C18.4639 10.2578 15.0469 13.6749 15.0469 17.875C15.0469 20.1895 16.0859 22.2647 17.7203 23.6628C14.3228 25.4481 12 29.0123 12 33.1094V44.2812C12 45.1226 12.6821 45.8047 13.5234 45.8047H25.9141C26.3182 45.8047 26.7056 45.6442 26.9912 45.3584L38.1016 34.2482L42.1025 38.2491C42.6974 38.844 43.662 38.844 44.257 38.2491L60.9531 21.5529V23.9688C60.9531 24.8101 61.6352 25.4922 62.4766 25.4922C63.3179 25.4922 64 24.8101 64 23.9688V17.875C64 17.0337 63.3179 16.3516 62.4766 16.3516ZM36.375 13.8125C36.375 11.2924 38.4252 9.24219 40.9453 9.24219C43.4654 9.24219 45.5156 11.2924 45.5156 13.8125C45.5156 16.3326 43.4654 18.3828 40.9453 18.3828C38.4252 18.3828 36.375 16.3326 36.375 13.8125ZM18.0938 17.875C18.0938 15.3549 20.144 13.3047 22.6641 13.3047C25.1841 13.3047 27.2344 15.3549 27.2344 17.875C27.2344 20.3951 25.1841 22.4453 22.6641 22.4453C20.144 22.4453 18.0938 20.3951 18.0938 17.875ZM25.2831 42.7578H15.0469V33.1094C15.0469 28.9093 18.4639 25.4922 22.6641 25.4922C24.6576 25.4922 26.5414 26.2581 27.9686 27.6487C29.3929 29.0366 30.2096 30.8953 30.2684 32.8823C30.27 32.9359 30.2744 32.9887 30.2814 33.0407V37.7595L25.2831 42.7578ZM43.1797 35.0174L39.1787 31.0165C38.5839 30.4216 37.6192 30.4216 37.0243 31.0165L33.3281 34.7127V29.0469C33.3281 24.8468 36.7452 21.4297 40.9453 21.4297C45.1454 21.4297 48.5625 24.8468 48.5625 29.0469V29.6346L43.1797 35.0174Z" fill="#D71920"/>
</svg>
