<svg width="22" height="21" viewBox="0 0 22 21" fill="none" xmlns="http://www.w3.org/2000/svg">
<path d="M0.798828 20.5809H6.30961V6.52734H0.798828V20.5809ZM2.04589 7.73674H5.06255V19.3714H2.04589V7.73674Z" fill="white"/>
<path d="M3.55509 0C1.85648 0 0.474609 1.28369 0.474609 2.86153C0.474609 4.43938 1.85648 5.72311 3.55509 5.72311C5.25371 5.72311 6.63562 4.43941 6.63562 2.86153C6.63562 1.28365 5.25366 0 3.55509 0ZM1.72179 2.86153C1.72179 1.92251 2.54417 1.15853 3.55509 1.15853C4.56601 1.15853 5.38844 1.92247 5.38844 2.86153C5.38844 3.8006 4.56601 4.56457 3.55509 4.56457C2.54417 4.56457 1.72179 3.80056 1.72179 2.86153Z" fill="white"/>
<path d="M21.4776 10.9298C21.2815 8.19189 18.9287 6.08203 16.0118 6.08203C14.7071 6.08203 13.4755 6.52232 12.5051 7.3036V6.51274H7.22461V20.5792H12.7354V12.886C12.7354 12.0189 13.4621 11.3135 14.3554 11.3135C15.2485 11.3135 15.9753 12.0189 15.9753 12.8863L15.9806 20.5793H21.491V10.9428L21.4776 10.9298ZM11.4884 19.3688H8.47165V7.72326H11.258V9.45213L12.2558 9.4577L12.4412 9.17832C13.2248 7.99748 14.5596 7.29256 16.0118 7.29256C18.3328 7.29256 20.1913 9.01156 20.2427 11.2059L20.2439 19.3688H17.2268L17.2223 12.886C17.2223 11.3514 15.9362 10.103 14.3554 10.103C12.7745 10.103 11.4884 11.3514 11.4884 12.886V19.3688Z" fill="white"/>
</svg>
