<svg width="22" height="22" viewBox="0 0 22 22" fill="none" xmlns="http://www.w3.org/2000/svg">
<path d="M21.8742 6.17928C21.825 5.06271 21.6444 4.2949 21.3856 3.62954C21.1189 2.92346 20.7084 2.29097 20.1705 1.7655C19.645 1.23152 19.0086 0.817066 18.3104 0.554346C17.6411 0.295573 16.8772 0.114934 15.7606 0.0656852C14.6355 0.0124876 14.2782 0 11.425 0C8.57117 0 8.21387 0.0124876 7.09334 0.0617365C5.97611 0.111005 5.20895 0.291625 4.5436 0.550417C3.83687 0.817066 3.20502 1.22757 2.67957 1.7655C2.14559 2.29097 1.73113 2.92741 1.46841 3.6256C1.20963 4.2949 1.029 5.0581 0.979738 6.17535C0.925879 7.30046 0.914062 7.65777 0.914062 10.511C0.914062 13.3648 0.925879 13.7221 0.975138 14.8426C1.02441 15.9592 1.20569 16.727 1.46381 17.3924C1.73113 18.0985 2.14559 18.731 2.67957 19.2564C3.20502 19.7904 3.84147 20.2049 4.53966 20.4676C5.20895 20.7264 5.97217 20.907 7.08941 20.9563C8.20992 21.0055 8.56723 21.018 11.4211 21.018C14.2743 21.018 14.6316 21.0055 15.7528 20.9563C16.8693 20.907 17.6372 20.7264 18.3025 20.4676C19.7146 19.9218 20.8312 18.8052 21.3777 17.3924C21.6365 16.7231 21.8171 15.9592 21.8664 14.8426C21.9156 13.7221 21.9275 13.3648 21.9275 10.511C21.9275 7.65777 21.9235 7.30046 21.8742 6.17928ZM19.9813 14.7605C19.9366 15.7871 19.7639 16.3415 19.6201 16.7106C19.2674 17.6269 18.5403 18.3533 17.6247 18.7067C17.2555 18.8499 16.6966 19.0226 15.6746 19.0679C14.5659 19.1172 14.2336 19.129 11.429 19.129C8.62438 19.129 8.28809 19.1172 7.18333 19.0679C6.15673 19.0226 5.60239 18.8499 5.23325 18.7067C4.77742 18.5379 4.36298 18.2712 4.02603 17.9224C3.67727 17.5816 3.40994 17.171 3.2418 16.7152C3.09796 16.3454 2.92587 15.7871 2.88055 14.7645C2.83129 13.6564 2.81881 13.3234 2.81881 10.5195C2.81881 7.71492 2.83129 7.37797 2.88055 6.27387C2.92587 5.24728 3.09796 4.69292 3.2418 4.3238C3.40994 3.86797 3.67727 3.45285 4.02997 3.11657C4.37087 2.76716 4.78137 2.50049 5.2372 2.33234C5.60698 2.1885 6.16527 2.01576 7.18792 1.9711C8.29597 1.92183 8.62897 1.90936 11.4329 1.90936C14.2414 1.90936 14.5738 1.92183 15.6785 1.9711C16.7051 2.01576 17.2595 2.1885 17.6286 2.33234C18.0844 2.50049 18.4995 2.76716 18.8358 3.11657C19.1853 3.4568 19.4519 3.86797 19.6201 4.3238C19.7639 4.69292 19.9366 5.25121 19.9813 6.27387C20.0306 7.38256 20.0431 7.71492 20.0431 10.5195C20.0431 13.3234 20.0306 13.6518 19.9813 14.7605Z" fill="white"/>
<path d="M11.4224 5.10938C8.44182 5.10938 6.02344 7.52776 6.02344 10.509C6.02344 13.4896 8.44182 15.908 11.4224 15.908C14.4037 15.908 16.8221 13.4896 16.8221 10.509C16.8221 7.52776 14.4037 5.10938 11.4224 5.10938ZM11.4224 14.0112C9.48878 14.0112 7.92031 12.4427 7.92031 10.509C7.92031 8.57472 9.48878 7.00625 11.4224 7.00625C13.3568 7.00625 14.9252 8.57472 14.9252 10.509C14.9252 12.4427 13.3568 14.0112 11.4224 14.0112Z" fill="white"/>
<path d="M18.2984 4.89727C18.2984 5.59355 17.7342 6.15781 17.0379 6.15781C16.3416 6.15781 15.7773 5.59355 15.7773 4.89727C15.7773 4.20098 16.3416 3.63672 17.0379 3.63672C17.7342 3.63672 18.2984 4.20098 18.2984 4.89727Z" fill="white"/>
</svg>
