<svg width="59" height="46" viewBox="0 0 59 46" fill="none" xmlns="http://www.w3.org/2000/svg">
<path d="M39.0047 22.3939C39.0047 36.4521 31.538 43 18.9912 43C6.44447 43 0.265625 38.2703 0.265625 24.2121C0.265625 10.154 4.82175 3 17.3685 3C29.9153 3 39.0047 8.33578 39.0047 22.3939Z" fill="#D71920" fill-opacity="0.21"/>
<path d="M24.8195 28.4267L26.6318 29.0516C30.1428 30.2623 30.2556 35.2489 26.7258 36.5701C26.7258 37.5181 26.0174 38.1178 25.2419 38.1178C24.4742 38.1178 23.7581 37.5271 23.7581 36.5701C22.2421 36.0026 21.1597 34.5395 21.1597 32.8279C21.1597 32.0083 21.824 31.344 22.6436 31.344C23.4631 31.344 24.1275 32.0083 24.1275 32.8279C24.1275 33.394 24.5881 33.8546 25.1542 33.8546H25.3296C26.4881 33.8546 26.7513 32.232 25.6643 31.8571L23.852 31.2322C20.3411 30.0218 20.2283 25.035 23.7581 23.7138C23.7581 22.7658 24.4664 22.1662 25.2419 22.1662C26.0097 22.1662 26.7258 22.7568 26.7258 23.7138C28.2418 24.2813 29.3242 25.7444 29.3242 27.4561C29.3242 28.2756 28.6598 28.9399 27.8403 28.9399C27.0207 28.9399 26.3564 28.2756 26.3564 27.4561C26.3564 26.89 25.8958 26.4293 25.3297 26.4293H25.1543C23.9958 26.4292 23.7326 28.0518 24.8195 28.4267ZM37.4839 30.142C37.4839 36.8922 31.9922 42.3839 25.2419 42.3839C18.4917 42.3839 13 36.8923 13 30.142C13 23.3917 18.4917 17.9 25.2419 17.9C31.9922 17.9 37.4839 23.3918 37.4839 30.142ZM34.5161 30.142C34.5161 25.0281 30.3558 20.8678 25.2419 20.8678C20.1281 20.8678 15.9677 25.0281 15.9677 30.142C15.9677 35.2559 20.1281 39.4162 25.2419 39.4162C30.3558 39.4162 34.5161 35.2559 34.5161 30.142ZM57.5161 39.4162H56.496V14.9323C56.496 14.1127 55.8317 13.4484 55.0121 13.4484C54.1925 13.4484 53.5282 14.1127 53.5282 14.9323V39.4162H46.0161V20.8678C46.0161 20.0482 45.3518 19.3839 44.5323 19.3839C43.7127 19.3839 43.0484 20.0482 43.0484 20.8678V39.4162H36.7419C35.9224 39.4162 35.2581 40.0805 35.2581 40.9C35.2581 41.7196 35.9224 42.3839 36.7419 42.3839H57.5161C58.3357 42.3839 59 41.7196 59 40.9C59 40.0805 58.3357 39.4162 57.5161 39.4162ZM35.8435 19.5985L41.1472 14.295L43.4831 16.6308C44.0625 17.2102 45.0021 17.2102 45.5815 16.6308L53.5282 8.684V9.36778C53.5282 10.1873 54.1925 10.8517 55.0121 10.8517C55.8317 10.8517 56.496 10.1873 56.496 9.36778C56.496 4.65872 56.503 5.05844 56.4796 4.89224C56.4077 4.38596 56.075 3.93579 55.5794 3.73065C55.2124 3.57874 55.3261 3.61778 50.746 3.61778C49.9264 3.61778 49.2621 4.28209 49.2621 5.10165C49.2621 5.92121 49.9264 6.58552 50.746 6.58552H51.4298L44.5323 13.4829L42.1964 11.1471C41.6169 10.5677 40.6773 10.5677 40.0979 11.1471L33.7451 17.5C33.1655 18.0794 33.1655 19.019 33.7451 19.5984C34.3247 20.1781 35.2641 20.178 35.8435 19.5985Z" fill="#D71920"/>
</svg>
