<svg width="25" height="20" viewBox="0 0 25 20" fill="none" xmlns="http://www.w3.org/2000/svg">
<path d="M24.4744 2.27129C23.5989 2.65659 22.6656 2.91216 21.6928 3.03611C22.6938 2.43697 23.4577 1.49494 23.817 0.360232C22.8836 0.918277 21.8537 1.31192 20.7556 1.53217C19.8695 0.586284 18.6071 0 17.2298 0C14.5572 0 12.4055 2.17562 12.4055 4.84184C12.4055 5.22586 12.4377 5.59509 12.5172 5.94572C8.50406 5.74984 4.95267 3.82081 2.56714 0.882963C2.15072 1.60731 1.90638 2.43697 1.90638 3.32957C1.90638 5.00623 2.76746 6.49218 4.05088 7.35266C3.27518 7.33791 2.51458 7.11186 1.8696 6.75611C1.8696 6.77087 1.8696 6.79013 1.8696 6.80939C1.8696 9.16162 3.54316 11.1157 5.73757 11.5658C5.34414 11.6731 4.91589 11.7251 4.47189 11.7251C4.16252 11.7251 3.85053 11.7071 3.55761 11.6423C4.18289 13.5591 5.95825 14.9686 8.0686 15.0142C6.42591 16.3024 4.34052 17.0787 2.08307 17.0787C1.68701 17.0787 1.30737 17.0614 0.927734 17.0126C3.0663 18.3952 5.60028 19.1844 8.33328 19.1844C17.216 19.1844 22.0731 11.806 22.0731 5.41015C22.0731 5.19631 22.0653 4.98954 22.0554 4.78469C23.013 4.10271 23.8183 3.25122 24.4744 2.27129Z" fill="white"/>
</svg>
