<svg width="128" height="128" viewBox="0 0 128 128" fill="none" xmlns="http://www.w3.org/2000/svg">
<path d="M28.1465 71.4492C26.775 71.4492 25.521 71.9585 24.561 72.7967C23.601 71.9587 22.347 71.4492 20.9755 71.4492C19.604 71.4492 18.35 71.9587 17.39 72.7967C16.4298 71.9587 15.1757 71.4492 13.8042 71.4492C10.7932 71.4492 8.34375 73.8987 8.34375 76.9097C8.34375 79.9207 10.7932 82.3702 13.8042 82.3702C15.1757 82.3702 16.4298 81.8607 17.39 81.0227C18.35 81.8607 19.604 82.3702 20.9755 82.3702C22.347 82.3702 23.601 81.861 24.561 81.0227C25.521 81.8607 26.775 82.3702 28.1465 82.3702C31.1575 82.3702 33.607 79.9207 33.607 76.9097C33.607 73.8987 31.1575 71.4492 28.1465 71.4492ZM13.8042 78.6205C12.861 78.6205 12.0938 77.8532 12.0938 76.91C12.0938 75.9667 12.861 75.1995 13.8042 75.1995C14.7475 75.1995 15.515 75.9667 15.515 76.91C15.515 77.8532 14.7472 78.6205 13.8042 78.6205ZM20.9755 78.6205C20.0322 78.6205 19.265 77.8532 19.265 76.91C19.265 75.9667 20.0322 75.1995 20.9755 75.1995C21.9187 75.1995 22.686 75.9667 22.686 76.91C22.686 77.8532 21.9187 78.6205 20.9755 78.6205ZM28.1465 78.6205C27.2032 78.6205 26.436 77.8532 26.436 76.91C26.436 75.9667 27.2032 75.1995 28.1465 75.1995C29.0898 75.1995 29.857 75.9667 29.857 76.91C29.857 77.8532 29.0898 78.6205 28.1465 78.6205Z" fill="black"/>
<path d="M78.284 33.9865C74.8925 32.3543 74.4695 29.0853 74.4695 25.7568C76.1167 25.3265 77.338 23.83 77.338 22.0498V18.751C77.338 16.6365 75.6175 14.916 73.503 14.916H54.7625C52.6477 14.916 50.9272 16.6365 50.9272 18.751V22.0498C50.9272 23.83 52.1482 25.3265 53.7957 25.7568C53.7957 29.0865 53.3845 32.35 49.9827 33.9858C46.3745 35.7185 44.043 39.4243 44.043 43.4265V61.991C44.043 64.02 45.024 65.9183 46.619 67.106V86.711C45.0242 87.8988 44.043 89.797 44.043 91.826V121.821C44.043 125.228 46.813 127.999 50.2177 127.999H78.0475C81.4522 127.999 84.2222 125.228 84.2222 121.821V91.8263C84.2222 89.797 83.2412 87.899 81.6465 86.7113V67.1063C83.2412 65.9185 84.2222 64.0203 84.2222 61.9913V43.4268C84.2222 39.4583 81.8605 35.699 78.284 33.9865ZM54.6772 18.751C54.6772 18.704 54.7155 18.666 54.7625 18.666H73.503C73.55 18.666 73.588 18.7043 73.588 18.751V22.0498C73.588 22.0968 73.5497 22.135 73.503 22.135H54.7625C54.7155 22.135 54.6772 22.0968 54.6772 22.0498V18.751ZM51.6067 37.3658C56.246 35.135 57.5455 30.6488 57.5455 25.885H70.7195C70.7195 30.6578 71.9732 35.111 76.661 37.3673C78.9535 38.4648 80.4722 40.8853 80.4722 43.4265V45.7755H47.7927V43.4265C47.7927 40.8575 49.2895 38.4785 51.6067 37.3658ZM47.7927 91.8263C47.7927 90.9405 48.2477 90.116 48.976 89.6365H79.289C80.0172 90.116 80.4722 90.9405 80.4722 91.8263V96.834H47.7927V91.8263ZM77.8965 85.8865H50.3687V67.931H77.8965V85.8865ZM80.4722 61.991C80.4722 62.8768 80.0175 63.7013 79.289 64.1808H48.9762C48.2477 63.7013 47.793 62.8768 47.793 61.991V56.9833H80.4725V61.991H80.4722ZM80.4722 53.2335H47.7927V49.5255H80.4722V53.2335ZM78.0475 124.249H50.2177C48.8807 124.249 47.793 123.16 47.793 121.822V108.042H52.5842C53.6197 108.042 54.4592 107.203 54.4592 106.167C54.4592 105.132 53.6197 104.292 52.5842 104.292H47.793V100.584H80.4725V104.292H61.5512C60.5157 104.292 59.6762 105.132 59.6762 106.167C59.6762 107.203 60.5157 108.042 61.5512 108.042H80.4725V121.822C80.4722 123.16 79.3845 124.249 78.0475 124.249Z" fill="black"/>
<path d="M59.543 75.8281H68.722C69.7575 75.8281 70.597 74.9886 70.597 73.9531C70.597 72.9176 69.7575 72.0781 68.722 72.0781H59.543C58.5075 72.0781 57.668 72.9176 57.668 73.9531C57.668 74.9886 58.5075 75.8281 59.543 75.8281Z" fill="black"/>
<path d="M66.714 78.6211H61.5508C60.5153 78.6211 59.6758 79.4606 59.6758 80.4961C59.6758 81.5316 60.5153 82.3711 61.5508 82.3711H66.714C67.7495 82.3711 68.589 81.5316 68.589 80.4961C68.589 79.4606 67.7495 78.6211 66.714 78.6211Z" fill="black"/>
<path d="M124.12 53.3908V49.288C124.12 47.2855 122.49 45.6562 120.488 45.6562H105.085C104.049 45.6562 103.21 46.4957 103.21 47.5312C103.21 48.5668 104.049 49.4062 105.085 49.4062H120.37V52.9707H93.9476V49.4062H96.5846C97.6201 49.4062 98.4596 48.5668 98.4596 47.5312C98.4596 46.4957 97.6201 45.6562 96.5846 45.6562H93.8296C91.8268 45.6562 90.1976 47.2855 90.1976 49.288V53.3158C88.5941 53.9888 87.4648 55.5745 87.4648 57.4195V123.183C87.4648 125.838 89.6256 127.999 92.2813 127.999H121.877C124.533 127.999 126.694 125.838 126.694 123.183V57.4195C126.694 55.6368 125.637 54.1 124.12 53.3908ZM91.2148 91.8115H97.5288C99.6923 94.7395 103.167 96.6428 107.079 96.6428C110.991 96.6428 114.466 94.7395 116.629 91.8115H122.943V117.078H91.2148V91.8115ZM91.2148 81.485H95.6766C95.3748 82.53 95.2096 83.6325 95.2096 84.7732C95.2096 85.914 95.3746 87.0165 95.6766 88.0615H91.2148V81.485ZM122.944 88.0615H118.482C118.784 87.0165 118.949 85.9142 118.949 84.7732C118.949 83.6322 118.784 82.53 118.482 81.485H122.944V88.0615ZM115.199 84.7732C115.199 89.2502 111.556 92.8928 107.079 92.8928C102.602 92.8928 98.9596 89.2505 98.9596 84.7732C98.9596 80.296 102.602 76.6537 107.079 76.6537C111.556 76.6537 115.199 80.2962 115.199 84.7732ZM122.245 56.7207C122.63 56.7207 122.944 57.0343 122.944 57.4195V77.735H116.63C114.466 74.807 110.991 72.9037 107.079 72.9037C103.167 72.9037 99.6926 74.807 97.5291 77.735H91.2151V57.4195C91.2151 57.034 91.5286 56.7207 91.9141 56.7207H122.245ZM122.944 123.183C122.944 123.771 122.465 124.249 121.877 124.249H92.2813C91.6933 124.249 91.2148 123.771 91.2148 123.183V120.828H122.944V123.183Z" fill="black"/>
<path d="M113.818 102.094H100.336C99.3004 102.094 98.4609 102.933 98.4609 103.969C98.4609 105.004 99.3004 105.844 100.336 105.844H113.818C114.853 105.844 115.693 105.004 115.693 103.969C115.693 102.933 114.853 102.094 113.818 102.094Z" fill="black"/>
<path d="M31.8061 31.5607C30.6883 29.9562 30.0976 28.0763 30.0976 26.124V13.1725C31.2363 12.6683 32.0338 11.5293 32.0338 10.206V3.24425C32.0338 1.45525 30.5783 0 28.7893 0H13.1568C11.3678 0 9.91259 1.45525 9.91259 3.24425V10.206C9.91259 11.53 10.7106 12.6695 11.8501 13.1733V26.1243C11.8501 27.1597 12.6896 27.9993 13.7251 27.9993C14.7606 27.9993 15.6001 27.1597 15.6001 26.1243V13.4502H26.3473V26.124C26.3473 28.8468 27.1708 31.4678 28.7301 33.7057C31.5913 37.8047 36.8891 43.098 36.8891 48.3833V53.2578H5.05859V48.3833C5.05859 43.5168 9.53734 38.9782 12.1741 35.2007C12.7668 34.3515 12.5591 33.1828 11.7098 32.59C10.8611 31.9975 9.69209 32.205 9.09909 33.0542C5.90709 37.6273 1.30859 42.502 1.30859 48.3833V122.561C1.30859 125.56 3.74884 128 6.74809 128H35.1996C38.1988 128 40.6391 125.56 40.6391 122.561V48.3833C40.6391 42.062 35.2391 36.4787 31.8061 31.5607ZM13.6626 3.75H28.2836V9.70025H13.6626V3.75ZM5.05859 63.734H36.8891V90.0833H5.05859V63.734ZM5.05859 93.8333H36.8891V96.8095H5.05859V93.8333ZM36.8891 59.984H5.05859V57.0078H36.8891V59.984ZM35.1996 124.25H6.74809C5.81659 124.25 5.05859 123.492 5.05859 122.561V100.56H36.8891V122.561C36.8891 123.492 36.1311 124.25 35.1996 124.25Z" fill="black"/>
</svg>
