<svg width="28" height="20" viewBox="0 0 28 20" fill="none" xmlns="http://www.w3.org/2000/svg">
<path d="M24.9978 0.28125H2.90296C1.60649 0.28125 0.546875 1.3362 0.546875 2.63734V16.7739C0.546875 18.0755 1.60717 19.13 2.90296 19.13H24.9978C26.2943 19.13 27.3539 18.075 27.3539 16.7739V2.63734C27.3539 1.33589 26.2938 0.28125 24.9978 0.28125ZM24.636 1.85198C23.8743 2.61624 14.9266 11.5931 14.559 11.9619C14.252 12.2699 13.649 12.2701 13.3418 11.9619L3.26475 1.85198H24.636ZM2.1176 16.4851V2.92609L8.87512 9.7056L2.1176 16.4851ZM3.26475 17.5592L9.984 10.8181L12.2294 13.0708C13.1495 13.9939 14.7517 13.9935 15.6715 13.0708L17.9168 10.8181L24.636 17.5592H3.26475ZM25.7832 16.4851L19.0257 9.7056L25.7832 2.92609V16.4851Z" fill="#D71920"/>
</svg>
