<svg width="28" height="28" viewBox="0 0 28 28" fill="none" xmlns="http://www.w3.org/2000/svg">
<path d="M19.9053 27.0961C15.2059 27.0961 10.1875 25.3693 6.2637 21.4456C2.34647 17.5283 0.613281 12.5133 0.613281 7.80409C0.613281 3.65377 3.97107 0.289062 8.12831 0.289062C8.44947 0.289062 8.73822 0.484565 8.85749 0.782741L12.2224 9.19486C12.3835 9.5976 12.1876 10.0546 11.7849 10.2157L8.08862 11.6942C8.3501 15.9466 11.7635 19.3598 16.0152 19.6209L17.4937 15.9246C17.6544 15.5225 18.1113 15.3259 18.5146 15.4871L26.9266 18.8519C27.2248 18.9712 27.4203 19.2599 27.4203 19.5811C27.4203 23.7314 24.0625 27.0961 19.9053 27.0961ZM7.60563 1.8823C4.59779 2.14257 2.18401 4.66484 2.18401 7.80409C2.18401 12.5376 4.0273 16.9879 7.37441 20.3349C10.7215 23.682 15.1717 25.5254 19.9053 25.5254C23.0436 25.5254 25.5667 23.113 25.8271 20.1038L18.6604 17.2371L17.2696 20.7139C17.1504 21.0121 16.8616 21.2076 16.5404 21.2076C11.0047 21.2076 6.50177 16.7047 6.50177 11.1698C6.50177 10.8487 6.69728 10.559 6.99545 10.4398L10.4723 9.049L7.60563 1.8823Z" fill="white"/>
</svg>
