<svg width="28" height="20" viewBox="0 0 28 20" fill="none" xmlns="http://www.w3.org/2000/svg">
<path d="M25.1111 0.320312H3.01624C1.71977 0.320312 0.660156 1.37526 0.660156 2.6764V16.8129C0.660156 18.1145 1.72045 19.169 3.01624 19.169H25.1111C26.4076 19.169 27.4672 18.1141 27.4672 16.8129V2.6764C27.4672 1.37495 26.4071 0.320312 25.1111 0.320312ZM24.7493 1.89104C23.9876 2.6553 15.0399 11.6322 14.6723 12.001C14.3653 12.3089 13.7623 12.3091 13.4551 12.001L3.37803 1.89104H24.7493ZM2.23088 16.5242V2.96515L8.9884 9.74466L2.23088 16.5242ZM3.37803 17.5983L10.0973 10.8572L12.3426 13.1098C13.2628 14.033 14.865 14.0326 15.7848 13.1098L18.0301 10.8572L24.7493 17.5983H3.37803ZM25.8965 16.5242L19.139 9.74466L25.8965 2.96515V16.5242Z" fill="white"/>
</svg>
