<svg width="28" height="28" viewBox="0 0 28 28" fill="none" xmlns="http://www.w3.org/2000/svg">
<path d="M19.8506 27.0766C15.1512 27.0766 10.1328 25.3498 6.20902 21.4261C2.29178 17.5088 0.558594 12.4938 0.558594 7.78456C0.558594 3.63423 3.91639 0.269531 8.07362 0.269531C8.39478 0.269531 8.68354 0.465034 8.80281 0.76321L12.1677 9.17533C12.3288 9.57807 12.1329 10.0351 11.7302 10.1962L8.03394 11.6747C8.29541 15.927 11.7088 19.3402 15.9605 19.6013L17.439 15.9051C17.5998 15.503 18.0566 15.3064 18.4599 15.4676L26.8719 18.8324C27.1701 18.9516 27.3656 19.2404 27.3656 19.5615C27.3656 23.7119 24.0078 27.0766 19.8506 27.0766ZM7.55094 1.86277C4.5431 2.12304 2.12932 4.64531 2.12932 7.78456C2.12932 12.5181 3.97262 16.9683 7.31973 20.3154C10.6668 23.6625 15.117 25.5058 19.8506 25.5058C22.9889 25.5058 25.512 23.0934 25.7724 20.0842L18.6057 17.2176L17.2149 20.6944C17.0957 20.9926 16.8069 21.1881 16.4857 21.1881C10.95 21.1881 6.44708 16.6851 6.44708 11.1503C6.44708 10.8291 6.64259 10.5395 6.94076 10.4202L10.4176 9.02946L7.55094 1.86277Z" fill="#D71920"/>
</svg>
