<svg width="28" height="27" viewBox="0 0 28 27" fill="none" xmlns="http://www.w3.org/2000/svg">
<path d="M11.1764 24.2096V26.902L10.5254 26.3761C10.4248 26.2948 8.03135 24.3516 5.60425 21.5651C2.25616 17.7211 0.558594 14.2706 0.558594 11.3097V11.0163C0.558594 5.16157 5.32173 0.398438 11.1764 0.398438C17.0311 0.398438 21.7942 5.16157 21.7942 11.0163V11.3097C21.7942 11.5584 21.781 11.8109 21.7571 12.0664L19.6807 10.1721C19.2554 5.85459 15.6039 2.4702 11.1764 2.4702C6.46419 2.4702 2.63036 6.30403 2.63036 11.0163V11.3097C2.63036 16.3132 9.07707 22.3703 11.1764 24.2096ZM17.5471 22.7216H20.6546V19.614H17.5471V22.7216ZM11.1764 6.61373C13.6039 6.61373 15.5789 8.58875 15.5789 11.0163C15.5789 13.4438 13.6039 15.4188 11.1764 15.4188C8.74891 15.4188 6.77389 13.4438 6.77389 11.0163C6.77389 8.58875 8.74891 6.61373 11.1764 6.61373ZM11.1764 8.6855C9.89117 8.6855 8.84565 9.73101 8.84565 11.0163C8.84565 12.3013 9.89117 13.347 11.1764 13.347C12.4615 13.347 13.5072 12.3013 13.5072 11.0163C13.5072 9.73101 12.4615 8.6855 11.1764 8.6855ZM25.7459 21.3138L25.1634 20.7824V24.1084C25.1634 25.6571 23.9033 26.917 22.3546 26.917H15.7953C14.2466 26.917 12.9865 25.6571 12.9865 24.1084V20.7824L12.4041 21.3138L11.0079 19.7834L19.0749 12.4238L27.1421 19.7834L25.7459 21.3138ZM23.0916 18.8924L19.0749 15.2281L15.0583 18.8924V24.1082C15.0583 24.5147 15.3889 24.8453 15.7953 24.8453H22.3546C22.7611 24.8453 23.0916 24.5147 23.0916 24.1082V18.8924Z" fill="white"/>
</svg>
